HIERARCHY
ROOT Hips
{
  OFFSET -32.5998 29.0326 120.673
  CHANNELS 6 Xposition Yposition Zposition Zrotation Xrotation Yrotation
  JOINT LeftUpLeg
  {
    OFFSET 8.64259 1.95398 -2.38835
    CHANNELS 3 Zrotation Xrotation Yrotation
    JOINT LeftLeg
    {
      OFFSET 43.7702 0 0
      CHANNELS 3 Zrotation Xrotation Yrotation
      JOINT LeftFoot
      {
        OFFSET 40.6238 0 0
        CHANNELS 3 Zrotation Xrotation Yrotation
        JOINT LeftToeBase
        {
          OFFSET 12.7242 0 0
          CHANNELS 3 Zrotation Xrotation Yrotation
          End Site
          {
            OFFSET 0 0 0
          }
        }
      }
    }
  }
  JOINT RightUpLeg
  {
    OFFSET -8.2249 1.95398 -2.59336
    CHANNELS 3 Zrotation Xrotation Yrotation
    JOINT RightLeg
    {
      OFFSET 43.5653 0 0
      CHANNELS 3 Zrotation Xrotation Yrotation
      JOINT RightFoot
      {
        OFFSET 40.6238 0 0
        CHANNELS 3 Zrotation Xrotation Yrotation
        JOINT RightToeBase
        {
          OFFSET 12.7242 0 0
          CHANNELS 3 Zrotation Xrotation Yrotation
          End Site
          {
            OFFSET 0 0 0
          }
        }
      }
    }
  }
  JOINT Spine
  {
    OFFSET 0.165834 0.87714 6.61349
    CHANNELS 3 Zrotation Xrotation Yrotation
    JOINT Spine1
    {
      OFFSET 7.38963 1.71661e-005 0
      CHANNELS 3 Zrotation Xrotation Yrotation
      JOINT Spine2
      {
        OFFSET 11.9445 1.14441e-005 0
        CHANNELS 3 Zrotation Xrotation Yrotation
        JOINT Spine3
        {
          OFFSET 14.7254 4.19617e-005 0
          CHANNELS 3 Zrotation Xrotation Yrotation
          JOINT Spine4
          {
            OFFSET 10.9679 0 0
            CHANNELS 3 Zrotation Xrotation Yrotation
            JOINT RightShoulder
            {
              OFFSET 2.46616 -1.6653 3.69651
              CHANNELS 3 Zrotation Xrotation Yrotation
              JOINT RightArm
              {
                OFFSET 13.0012 0 0
                CHANNELS 3 Zrotation Xrotation Yrotation
                JOINT RightForeArm
                {
                  OFFSET 28.7848 1.62311e-005 0
                  CHANNELS 3 Zrotation Xrotation Yrotation
                  JOINT RightHand
                  {
                    OFFSET 26.5688 1.62095e-005 0
                    CHANNELS 3 Zrotation Xrotation Yrotation
                    End Site
                    {
                      OFFSET 0 0 0
                    }
                  }
                }
              }
            }
            JOINT LeftShoulder
            {
              OFFSET 2.38034 -1.29275 -3.7523
              CHANNELS 3 Zrotation Xrotation Yrotation
              JOINT LeftArm
              {
                OFFSET 16.3182 6.07031e-005 0
                CHANNELS 3 Zrotation Xrotation Yrotation
                JOINT LeftForeArm
                {
                  OFFSET 27.0901 0 0
                  CHANNELS 3 Zrotation Xrotation Yrotation
                  JOINT LeftHand
                  {
                    OFFSET 24.5451 1.51738e-005 0
                    CHANNELS 3 Zrotation Xrotation Yrotation
                    End Site
                    {
                      OFFSET 0 0 0
                    }
                  }
                }
              }
            }
            JOINT Neck
            {
              OFFSET 5.0226 -0.0266342 0
              CHANNELS 3 Zrotation Xrotation Yrotation
              JOINT Head
              {
                OFFSET 6.69364 2.86102e-005 0
                CHANNELS 3 Zrotation Xrotation Yrotation
                End Site
                {
                  OFFSET 0 0 0
                }
              }
            }
          }
        }
      }
    }
  }
}
MOTION
Frames:	10
Frame Time:	0.0416667
20.8411 98.4336 -11.4286 153.086 -81.5374 153.369 -175.933 16.2611 86.5134 -7.84933 -17.8511 -1.72471 61.9437 1.73627 -1.64838 16.1343 -8.16883 4.85321 171.934 -10.4667 90.1217 -19.465 -8.82057 -0.306959 75.955 -8.02653 -1.89853 29.2649 -0.724714 2.0666 1.53427 8.19997 -90.1059 10.483 3.00762 -0.476974 -1.18458 2.98372 -0.609004 -23.7474 3.01179 0.44984 -3.73479 3.0118 0.449837 90.4389 -24.0161 -108.324 27.8164 -13.852 -19.0738 -21.0475 -18.0024 -34.3741 -9.90352 -0.132349 -3.80523 -86.2561 -52.6293 84.734 -33.9107 17.7823 12.356 12.2343 1.75104 -21.8868 -6.68511 -0.102336 -4.04647 -4.45974 -2.92556 5.73881 -4.53725 -3.45057 -4.19766 
22.655 97.6817 -4.1257 150.592 -80.5947 151.291 -175.468 14.1735 85.5244 -9.09206 -21.1195 -2.76718 58.5313 -0.0776186 -0.200463 13.4209 -8.53396 3.15449 169.986 -16.0409 88.2809 -18.3807 -10.1272 0.0843232 74.577 -8.40613 -2.49617 34.6944 -2.96296 1.78829 1.62063 8.07902 -90.1188 10.7264 3.17261 -0.527794 -0.940826 3.14631 -0.667042 -23.5068 3.18441 0.451106 -3.49419 3.1844 0.451102 89.9357 -24.8796 -109.02 29.9971 -12.6542 -19.4686 -19.7715 -16.344 -33.1796 -10.7885 -0.15209 -3.68993 -85.0621 -52.2332 86.4328 -34.6279 14.5082 12.7694 12.1889 0.892253 -21.7307 -6.09646 -0.11357 -3.6611 -5.1259 -1.40546 5.99733 -5.28845 -1.92423 -2.90347 
25.0032 97.809 3.59735 143.98 -79.6954 144.651 -174.253 15.7778 83.9602 -21.304 -14.863 -3.7558 65.6484 1.66356 1.45217 -0.269326 -13.8203 0.508656 167.214 -16.721 84.9211 -23.8687 -13.326 0.561209 67.471 -4.22253 -1.36213 44.1152 -6.76597 0.548995 1.61745 7.87805 -89.9967 11.126 3.22105 -0.30623 -0.541012 3.20445 -0.447849 -23.1074 3.16401 0.676984 -3.09476 3.16401 0.676989 89.114 -26.7816 -109.887 34.3308 -13.9042 -17.8753 -18.1273 -16.9944 -29.5311 -9.51844 -0.0365811 -4.96112 -84.1201 -50.9729 87.6791 -34.4206 11.6916 11.093 12.3701 0.790241 -20.785 -4.98746 -0.115008 -3.28136 -4.86645 0.530988 5.62734 -6.6865 0.0372415 -1.96032 
27.9939 98.0035 10.1823 141.729 -77.4061 140.713 -174.489 10.8724 80.9653 -24.3066 -14.1984 -3.95174 71.3498 5.56871 1.38973 0.835574 -14.4006 2.01906 165.878 -8.03593 80.0033 -44.7996 -20.8347 -1.66622 58.6928 1.75044 -0.0825128 35.6894 -3.86098 5.18439 1.57791 7.97601 -89.8033 10.9243 3.23256 0.0867288 -0.742604 3.23323 -0.0557887 -23.3076 3.0569 1.05515 -3.2949 3.05689 1.05515 88.63 -27.1709 -110.707 38.7562 -16.5089 -14.7977 -17.2256 -18.5095 -27.4605 -8.04558 0.0557013 -6.43849 -84.1311 -50.3795 87.5959 -31.9286 10.9429 6.56186 12.6042 0.81826 -20.5742 -4.16138 -0.100291 -3.59733 -4.82846 2.58603 7.08049 -6.39333 1.92492 -1.52914 
30.895 97.9126 15.27 133.962 -74.0204 131.828 -175.258 5.80174 78.7652 -24.6493 -11.4311 -3.90052 74.8545 8.21528 2.30344 2.54567 -13.6587 2.28457 170.612 2.00933 80.3231 -63.8115 -24.1921 -5.48316 59.3 1.54443 0.628017 24.2594 0.983484 3.66602 1.37474 8.13142 -89.723 10.609 2.86536 0.29127 -1.05878 2.87541 0.164769 -23.6161 2.64526 1.13955 -3.60349 2.64526 1.13955 89.0821 -27.2001 -109.767 42.3998 -17.3469 -11.5018 -17.7662 -19.7138 -27.8938 -7.19424 0.0882155 -7.08923 -84.8073 -50.901 86.6435 -26.2694 10.4046 0.399676 14.5088 3.21506 -23.4754 -3.8187 -0.0937144 -4.1333 -5.46095 4.46342 9.64831 -5.87416 3.59047 -1.32763 
33.327 98.1241 19.1365 119.219 -67.6879 118.193 -176.147 1.99097 78.8575 -23.44 -4.06572 -2.76019 76.8665 10.5481 3.09227 2.7239 -14.064 2.95284 176.507 9.36953 84.2519 -67.0272 -15.5476 -6.55081 64.3774 -1.47973 -2.43812 20.2267 2.0397 5.66663 0.920183 8.14008 -89.9257 10.5949 1.8669 -0.0207335 -1.07471 1.86416 -0.102916 -23.62 1.78679 0.541492 -3.60734 1.78678 0.541475 90.2268 -27.3742 -107.338 44.6742 -15.3703 -7.0416 -17.6557 -18.9402 -27.9615 -7.85191 0.0281383 -5.97067 -85.6393 -52.1419 85.5716 -18.8621 10.4693 -7.31159 15.4915 4.13577 -25.1755 -3.84745 -0.0868593 -4.4776 -6.73812 5.93488 9.9876 -5.85104 5.09099 1.34244 
36.0221 98.9683 22.7053 108.055 -56.376 108.583 -177.236 -2.89523 80.3874 -20.6281 6.65364 -0.731845 76.7041 10.9889 2.13003 3.86321 -14.3875 4.24002 -179.718 12.3145 87.985 -57.0997 -6.68673 -7.42804 71.0113 -5.74337 -3.94381 13.1975 5.48941 4.37499 0.178156 8.17393 -90.1882 10.5266 0.268548 -0.397117 -1.14443 0.250837 -0.408557 -23.6793 0.375469 -0.298044 -3.66669 0.375482 -0.298043 90.7184 -27.2846 -106.356 45.4509 -12.3892 -1.68095 -16.3307 -17.7543 -25.843 -8.81604 0.0190109 -5.76927 -86.2857 -50.3976 84.3613 -15.8922 11.1209 -16.077 15.0804 3.96652 -24.1066 -3.31434 -0.0855088 -4.95193 -6.73572 6.48834 8.86576 -6.08563 5.69338 2.95706 
38.6351 99.3331 25.8825 99.8447 -42.75 102.455 -177.186 -5.0772 83.7292 -20.4957 21.4971 1.03164 76.9801 11.6278 2.35083 2.30209 -14.3666 3.03593 -179.026 15.6424 90.4865 -42.7503 -8.35683 -6.64018 69.4765 -4.90357 -3.70128 16.7497 3.99242 4.21933 -0.537805 8.10705 -90.4836 10.6557 -1.29371 -0.84344 -1.01482 -1.32955 -0.785688 -23.5511 -0.980424 -1.19325 -3.53848 -0.980425 -1.19324 92.076 -27.3193 -103.523 45.855 -10.9765 2.59624 -14.6122 -17.4346 -22.692 -9.06064 -0.0462882 -4.84975 -87.1277 -47.5546 82.6144 -15.3554 13.7184 -26.6959 14.2957 5.19397 -20.3558 -1.23235 -0.0944151 -4.74431 -4.53628 5.92381 4.85035 -7.17752 5.22876 5.81642 
41.8213 99.048 29.0353 96.5932 -32.3168 99.771 -175.951 -6.99241 86.7335 -21.6967 32.8583 1.52672 79.2163 13.414 2.35387 0.0638033 -14.8875 2.08836 179.932 18.3918 92.6443 -27.6976 -12.2321 -3.67971 66.4946 -3.10009 -0.0886541 21.0059 3.21285 1.08364 -0.767559 8.17361 -90.6104 10.5175 -1.80908 -1.05175 -1.15255 -1.85359 -0.971098 -23.6911 -1.40937 -1.54684 -3.67841 -1.40937 -1.54684 92.2451 -28.1898 -102.875 45.6953 -10.6266 6.28931 -12.9773 -16.5688 -20.2321 -8.44137 -0.00350918 -5.4348 -87.5675 -44.4991 81.3582 -16.5954 17.4562 -35.7165 13.8935 6.96905 -18.4528 -1.46283 -0.0957316 -5.20957 -1.6965 4.66281 0.613528 -7.65702 4.32431 6.31244 
46.1254 98.0215 32.3175 95.1223 -26.0298 97.4892 -174.771 -9.41979 88.4927 -22.8471 40.7013 1.3177 80.687 15.062 3.14642 0.26544 -14.9996 2.37373 179.227 19.0533 95.1126 -12.3146 -13.4186 -0.674502 63.9993 -2.52043 -0.140532 29.7582 -0.473184 0.138359 -0.84447 8.2005 -90.5389 10.4653 -1.92946 -0.900081 -1.20451 -1.9672 -0.814272 -23.7454 -1.56976 -1.43841 -3.73275 -1.56976 -1.43841 91.8107 -29.1313 -103.444 45.097 -11.834 7.56947 -12.0397 -17.0055 -19.2418 -9.06676 -0.0517976 -4.7614 -87.879 -44.1727 80.7951 -18.2701 19.6669 -37.6212 15.4862 9.04903 -21.5655 -1.58969 -0.0982408 -5.22323 0.124204 4.51248 -3.15056 -7.69292 4.65239 6.99879 
